<?xml version="1.0" standalone="no"?>
<!DOCTYPE svg PUBLIC "-//W3C//DTD SVG 20010904//EN"
 "http://www.w3.org/TR/2001/REC-SVG-20010904/DTD/svg10.dtd">
<svg version="1.0" xmlns="http://www.w3.org/2000/svg"
 width="1800.000000pt" height="1024.000000pt" viewBox="0 0 900.000000 512.000000"
 preserveAspectRatio="xMidYMid meet">

<g transform="translate(0.000000,512.000000) scale(0.100000,-0.100000)"
fill="white" stroke="none">
<path d="M2639 5093 c-68 -35 -106 -93 -119 -184 -14 -97 -13 -4713 1 -4764
14 -51 72 -105 136 -128 45 -16 166 -17 1839 -17 1638 0 1796 1 1843 17 67 21
126 76 140 130 8 30 11 557 9 1930 l-3 1888 -27 45 c-39 66 -1054 1075 -1100
1095 -33 13 -190 15 -1351 15 l-1313 0 -55 -27z m2613 -668 c-1 -283 -5 -515
-9 -515 -3 0 -14 7 -24 16 -26 23 -88 43 -137 44 -122 1 -125 -154 -4 -175 27
-4 49 -16 62 -32 18 -24 20 -41 20 -218 0 -258 17 -335 93 -421 l29 -34 -29
-34 c-76 -86 -93 -163 -93 -421 0 -177 -2 -194 -20 -218 -13 -16 -35 -28 -62
-32 -55 -10 -88 -43 -88 -90 0 -82 91 -110 195 -61 58 27 94 63 127 126 22 43
23 58 28 285 3 161 9 247 17 261 11 19 78 84 87 84 2 0 27 5 57 10 68 13 99
41 99 90 0 48 -31 77 -98 90 -29 5 -61 14 -71 19 -14 8 -64 58 -83 84 0 1 -4
112 -7 247 l-6 245 -31 55 -31 55 518 0 519 0 0 -1102 0 -1103 -1810 0 -1810
0 0 1604 c0 1019 4 1614 10 1630 l10 26 1272 0 1273 0 -3 -515z m553 5 l370
-370 -373 0 -372 0 0 370 c0 204 1 370 3 370 1 0 169 -166 372 -370z m505
-3578 c0 -491 -3 -651 -12 -660 -17 -17 -3579 -17 -3596 0 -9 9 -12 169 -12
660 l0 648 1810 0 1810 0 0 -648z"/>
<path d="M3747 3955 c-61 -23 -114 -71 -144 -133 -28 -56 -28 -59 -33 -292 -5
-223 -6 -237 -28 -272 -25 -41 -82 -72 -149 -83 -76 -12 -108 -86 -60 -139 15
-18 39 -29 76 -36 69 -13 111 -40 138 -87 20 -35 22 -56 25 -268 3 -191 7
-237 21 -269 43 -98 118 -154 215 -163 51 -5 61 -3 86 19 21 18 28 33 28 61 0
50 -22 73 -87 92 -29 8 -59 22 -66 31 -11 13 -15 73 -19 253 -5 228 -6 238
-31 291 -14 31 -41 73 -58 93 l-33 37 35 41 c75 87 87 143 87 411 0 197 0 199
24 223 14 14 42 27 65 31 80 13 111 95 56 149 -28 29 -86 33 -148 10z"/>
<path d="M4393 3511 c-65 -41 -85 -116 -48 -178 52 -88 185 -81 229 11 20 42
20 69 2 104 -38 74 -121 102 -183 63z"/>
<path d="M4396 2884 c-26 -27 -26 -27 -26 -190 0 -157 1 -164 24 -190 31 -37
84 -38 121 -4 25 23 25 25 25 192 0 166 0 169 -25 193 -33 34 -84 34 -119 -1z"/>
<path d="M3380 899 l0 -361 -28 -28 c-50 -49 -125 -48 -287 4 -16 5 -26 -2
-47 -37 -16 -24 -28 -46 -28 -49 0 -8 99 -49 155 -64 110 -30 253 -10 316 43
67 57 69 66 69 481 l0 372 -75 0 -75 0 0 -361z"/>
<path d="M3970 1253 c-77 -13 -121 -36 -164 -84 -51 -57 -72 -123 -61 -191 15
-91 63 -142 209 -221 143 -78 177 -120 156 -196 -21 -77 -93 -109 -205 -90
-33 6 -75 17 -94 25 -47 20 -49 19 -61 -27 -15 -55 -9 -66 47 -92 69 -30 238
-31 303 -1 124 57 183 203 130 317 -29 62 -69 96 -189 157 -152 78 -190 137
-141 217 41 68 145 88 242 48 23 -9 77 93 56 106 -33 22 -175 42 -228 32z"/>
<path d="M4691 1249 c-75 -13 -134 -44 -186 -100 -81 -87 -116 -192 -116 -348
0 -268 127 -437 340 -449 192 -11 322 90 377 293 19 69 18 243 -2 318 -54 207
-214 318 -413 286z m174 -147 c84 -58 129 -221 105 -383 -14 -96 -30 -136 -72
-185 -82 -94 -228 -86 -303 16 -100 136 -75 465 43 549 67 47 160 49 227 3z"/>
<path d="M5330 795 l0 -445 75 0 75 0 2 301 3 301 170 -299 170 -298 73 -3 72
-3 0 446 0 445 -72 0 -73 0 3 -307 c2 -262 0 -305 -11 -288 -8 11 -87 149
-176 308 l-163 287 -74 0 -74 0 0 -445z"/>
</g>
</svg>
