<svg version="1.1" xmlns="http://www.w3.org/2000/svg" xmlns:xlink="http://www.w3.org/1999/xlink"  width="60.301" height="81" viewBox="0 0 1000 1000" enable-background="new 0 0 1000 1000" xml:space="preserve">
<metadata> Svg Vector Icons : http://www.onlinewebfonts.com/icon </metadata>
<g fill="white">
<path d="M535.6,305.1L317.3,416.5l-63.4,32.3l7.7,79.1h360.4L608.4,667l-108.3,27.9L402.9,667l-11.3-83.5H267l16.2,167L500,806.2l216.7-55.7l32.4-334.1h-195L759.5,311l11.4-117.2H229.1l10.9,111.4H535.6z"/><path d="M67.9,10l78.6,882l352.9,98l353.9-98.1L932.1,10L67.9,10L67.9,10z M787,818.4l-287.5,79.7l-286.7-79.6l-63.9-716.6h702.1L787,818.4z"/></g>
</svg> 
